<svg version="1.0" preserveAspectRatio="xMidYMid meet" height="424" viewBox="0 0 309 317.999988" zoomAndPan="magnify" width="412" xmlns:xlink="http://www.w3.org/1999/xlink" xmlns="http://www.w3.org/2000/svg"><defs><filter id="117b1ba270" height="100%" width="100%" y="0%" x="0%"><feColorMatrix color-interpolation-filters="sRGB" values="0 0 0 0 1 0 0 0 0 1 0 0 0 0 1 0 0 0 1 0"></feColorMatrix></filter><mask id="40f7e05072"><g filter="url(#117b1ba270)"><rect fill-opacity="0.79" height="381.599985" y="-31.799999" fill="#000000" width="370.8" x="-30.9"></rect></g></mask><clipPath id="44c714379f"><path clipRule="nonzero" d="M 39 56 L 294 56 L 294 255 L 39 255 Z M 39 56"></path></clipPath><clipPath id="eb71c832c7"><path clipRule="nonzero" d="M 124.046875 0.00390625 L 309.023438 206.859375 L 184.910156 317.84375 L -0.0703125 110.988281 Z M 124.046875 0.00390625"></path></clipPath><clipPath id="cc26b28bac"><path clipRule="nonzero" d="M 124.046875 0.00390625 L 309.023438 206.859375 L 184.910156 317.84375 L -0.0703125 110.988281 Z M 124.046875 0.00390625"></path></clipPath><clipPath id="9587cf8295"><path clipRule="nonzero" d="M 124.152344 0.125 L 309.027344 206.863281 L 184.746094 318 L -0.128906 111.261719 Z M 124.152344 0.125"></path></clipPath><clipPath id="21a4e70c0a"><path clipRule="nonzero" d="M 124.152344 0.125 L 308.824219 206.636719 L 184.769531 317.566406 L 0.101562 111.054688 Z M 124.152344 0.125"></path></clipPath><clipPath id="eb0934b5f5"><rect height="318" y="0" width="309" x="0"></rect></clipPath><clipPath id="df537ed54b"><path clipRule="nonzero" d="M 74.824219 122.550781 L 248.074219 122.550781 L 248.074219 295.800781 L 74.824219 295.800781 Z M 74.824219 122.550781"></path></clipPath><clipPath id="fefd1f7696"><path clipRule="nonzero" d="M 37 101 L 151 101 L 151 216 L 37 216 Z M 37 101"></path></clipPath><clipPath id="cc1fd3dd9f"><path clipRule="nonzero" d="M 66.867188 234.578125 L 18.171875 131.777344 L 120.96875 83.082031 L 169.667969 185.882812 Z M 66.867188 234.578125"></path></clipPath><clipPath id="fc581f008b"><path clipRule="nonzero" d="M 42.519531 183.179688 C 55.964844 211.566406 89.878906 223.679688 118.265625 210.230469 C 146.652344 196.785156 158.765625 162.871094 145.320312 134.484375 C 131.871094 106.097656 97.957031 93.984375 69.570312 107.429688 C 41.183594 120.878906 29.070312 154.792969 42.519531 183.179688 Z M 42.519531 183.179688"></path></clipPath></defs><g mask="url(#40f7e05072)"><g transform="matrix(1, 0, 0, 1, 0, 0)"><g clipPath="url(#eb0934b5f5)"><g clipPath="url(#44c714379f)"><g clipPath="url(#eb71c832c7)"><g clipPath="url(#cc26b28bac)"><g clipPath="url(#9587cf8295)"><g clipPath="url(#21a4e70c0a)"><path fillRule="nonzero" fill-opacity="1" d="M 112.972656 60.902344 C 73.992188 47.789062 39.734375 63.316406 39.652344 85.960938 C 39.585938 104.542969 61.320312 114.46875 71.507812 126.480469 C 80.675781 137.289062 77.914062 145.710938 76.289062 158.132812 C 70.15625 205.0625 108.164062 238.933594 150.640625 249.414062 C 184.109375 257.667969 234.027344 255.113281 255.703125 247.328125 C 290.992188 234.660156 301.058594 202.585938 287.21875 182.808594 C 272.699219 162.070312 233.4375 160.453125 212.28125 146.519531 C 183.035156 127.261719 178.714844 83.011719 112.972656 60.902344" fill="#0c3c4a"></path></g></g></g></g></g></g></g></g><g clipPath="url(#df537ed54b)"><path fillRule="nonzero" fill-opacity="1" d="M 128.179688 129.101562 C 127.589844 129.347656 127.007812 129.609375 126.421875 129.867188 L 240.734375 244.179688 C 240.992188 243.59375 241.253906 243.011719 241.496094 242.421875 Z M 111.890625 138.039062 C 111.394531 138.382812 110.902344 138.730469 110.414062 139.085938 L 231.515625 260.1875 C 231.871094 259.699219 232.21875 259.207031 232.5625 258.710938 Z M 119.664062 133.199219 C 119.121094 133.496094 118.59375 133.808594 118.058594 134.117188 L 236.484375 252.542969 C 236.792969 252.007812 237.105469 251.480469 237.402344 250.941406 Z M 137.542969 125.851562 C 136.886719 126.039062 136.226562 126.207031 135.578125 126.410156 L 244.191406 235.023438 C 244.394531 234.375 244.5625 233.714844 244.75 233.058594 Z M 172.800781 123.273438 C 171.847656 123.148438 170.894531 123.019531 169.929688 122.925781 L 247.675781 200.671875 C 247.582031 199.707031 247.453125 198.753906 247.328125 197.800781 Z M 233.878906 161.648438 C 230.894531 157.113281 227.5 152.878906 223.742188 148.988281 L 221.613281 146.859375 C 217.722656 143.101562 213.488281 139.707031 208.953125 136.722656 Z M 159.464844 122.550781 C 158.644531 122.570312 157.820312 122.574219 157.007812 122.613281 L 247.988281 213.59375 C 248.027344 212.78125 248.03125 211.957031 248.050781 211.136719 Z M 147.863281 123.558594 C 147.144531 123.671875 146.433594 123.8125 145.722656 123.941406 L 246.660156 224.878906 C 246.789062 224.167969 246.929688 223.457031 247.042969 222.738281 Z M 104.792969 143.554688 C 104.339844 143.945312 103.882812 144.328125 103.441406 144.726562 L 225.878906 267.160156 C 226.277344 266.71875 226.660156 266.261719 227.046875 265.808594 Z M 84.621094 249.511719 C 85.699219 251.558594 86.859375 253.554688 88.089844 255.5 L 115.101562 282.511719 C 117.046875 283.746094 119.042969 284.902344 121.089844 285.980469 Z M 74.863281 214.523438 C 74.917969 215.4375 74.984375 216.347656 75.070312 217.253906 L 153.347656 295.53125 C 154.253906 295.617188 155.164062 295.683594 156.078125 295.738281 Z M 244.660156 185.042969 C 244.300781 183.800781 243.914062 182.578125 243.503906 181.359375 L 189.238281 127.097656 C 188.023438 126.6875 186.796875 126.300781 185.558594 125.941406 Z M 77.058594 229.332031 C 77.328125 230.476562 77.625 231.613281 77.941406 232.742188 L 137.859375 292.660156 C 138.988281 292.976562 140.125 293.273438 141.269531 293.542969 Z M 75.003906 202.050781 C 74.9375 202.832031 74.867188 203.609375 74.824219 204.394531 L 166.207031 295.777344 C 166.992188 295.734375 167.769531 295.664062 168.550781 295.597656 Z M 76.605469 191.042969 C 76.457031 191.742188 76.324219 192.449219 76.191406 193.152344 L 177.449219 294.410156 C 178.152344 294.277344 178.859375 294.144531 179.558594 293.996094 Z M 92.542969 156.527344 C 92.175781 157.003906 91.8125 157.484375 91.457031 157.96875 L 212.636719 279.144531 C 213.117188 278.789062 213.597656 278.425781 214.074219 278.058594 Z M 87.398438 163.996094 C 87.078125 164.519531 86.777344 165.058594 86.464844 165.589844 L 205.011719 284.132812 C 205.542969 283.824219 206.082031 283.523438 206.605469 283.203125 Z M 79.347656 181.171875 C 79.132812 181.796875 78.910156 182.421875 78.707031 183.054688 L 187.546875 291.894531 C 188.179688 291.695312 188.804688 291.46875 189.429688 291.257812 Z M 82.976562 172.1875 C 82.707031 172.761719 82.449219 173.34375 82.191406 173.925781 L 196.675781 288.410156 C 197.257812 288.152344 197.839844 287.898438 198.414062 287.625 Z M 220.882812 272.257812 C 220.449219 272.664062 220.027344 273.082031 219.585938 273.484375 L 97.117188 151.015625 C 97.519531 150.574219 97.9375 150.152344 98.34375 149.71875 L 220.882812 272.257812" fill="#b8b022"></path></g><g clipPath="url(#fefd1f7696)"><g clipPath="url(#cc1fd3dd9f)"><g clipPath="url(#fc581f008b)"><path fillRule="nonzero" fill-opacity="1" d="M 66.867188 234.578125 L 18.171875 131.777344 L 120.96875 83.082031 L 169.667969 185.882812 Z M 66.867188 234.578125" fill="#f6ea21"></path></g></g></g></svg>