<svg version="1.0" preserveAspectRatio="xMidYMid meet" height="344" viewBox="0 0 236.87999 257.99999" zoomAndPan="magnify" width="316" xmlns:xlink="http://www.w3.org/1999/xlink" xmlns="http://www.w3.org/2000/svg"><defs><filter id="447b9f2d95" height="100%" width="100%" y="0%" x="0%"><feColorMatrix color-interpolation-filters="sRGB" values="0 0 0 0 1 0 0 0 0 1 0 0 0 0 1 0 0 0 1 0"></feColorMatrix></filter><mask id="4687dd8f07"><g filter="url(#447b9f2d95)"><rect fill-opacity="0.79" height="309.599987" y="-25.799999" fill="#000000" width="284.255988" x="-23.687999"></rect></g></mask><clipPath id="6bf35e5df1"><path clipRule="nonzero" d="M 6 19 L 221 19 L 221 228 L 6 228 Z M 6 19"></path></clipPath><clipPath id="1a4bfde82c"><path clipRule="nonzero" d="M 202.953125 -11.933594 L 231.132812 221 L 24.246094 246.027344 L -3.929688 13.09375 Z M 202.953125 -11.933594"></path></clipPath><clipPath id="c04325ce12"><path clipRule="nonzero" d="M 202.953125 -11.933594 L 231.132812 221 L 24.246094 246.027344 L -3.929688 13.09375 Z M 202.953125 -11.933594"></path></clipPath><clipPath id="bcc580dc2f"><rect height="242" y="0" width="231" x="0"></rect></clipPath><clipPath id="ae0f7a9109"><path clipRule="nonzero" d="M 77.976562 69.683594 L 196.414062 69.683594 L 196.414062 188.125 L 77.976562 188.125 Z M 77.976562 69.683594"></path></clipPath><clipPath id="2869cea16c"><path clipRule="nonzero" d="M 156.457031 88.875 L 236.648438 88.875 L 236.648438 169.066406 L 156.457031 169.066406 Z M 156.457031 88.875"></path></clipPath><clipPath id="7a6c269394"><path clipRule="nonzero" d="M 196.550781 88.875 C 174.40625 88.875 156.457031 106.828125 156.457031 128.972656 C 156.457031 151.117188 174.40625 169.066406 196.550781 169.066406 C 218.695312 169.066406 236.648438 151.117188 236.648438 128.972656 C 236.648438 106.828125 218.695312 88.875 196.550781 88.875 Z M 196.550781 88.875"></path></clipPath></defs><g mask="url(#4687dd8f07)"><g transform="matrix(1, 0, 0, 1, 4, 12)"><g clipPath="url(#bcc580dc2f)"><g clipPath="url(#6bf35e5df1)"><g clipPath="url(#1a4bfde82c)"><g clipPath="url(#c04325ce12)"><path fillRule="evenodd" fill-opacity="1" d="M 218.289062 129.390625 C 215.558594 121.183594 213.203125 116.132812 207.671875 111.46875 C 190.695312 96.441406 176.570312 96.726562 154.429688 86.25 C 125.738281 72.996094 121.625 65.671875 100.417969 46.535156 C 97.878906 43.996094 95.414062 42.160156 92.914062 39.976562 C 73.109375 22.09375 37.394531 8.269531 18.558594 33.316406 C 14.945312 38.378906 12.109375 43.699219 9.492188 50.777344 C 7.070312 57.472656 4.121094 63.878906 7.667969 72.699219 C 10.144531 78.804688 15.03125 84.257812 18.648438 89.515625 C 22.550781 95.09375 26.703125 100.636719 29.0625 107.820312 C 31.382812 114.652344 33.34375 124.738281 32.765625 132.277344 C 31.648438 147.710938 15.132812 171.40625 31.09375 196.515625 C 53.179688 231.199219 79.597656 211.28125 110.269531 220.375 C 121.597656 223.632812 139.238281 231.816406 153.660156 223.664062 C 162.988281 218.621094 165.164062 211.957031 168.128906 207.683594 C 169.835938 205.339844 169.605469 209.640625 172.230469 202.558594 C 173.359375 199.574219 180.222656 190.566406 184.292969 187.226562 C 186.773438 185.144531 189.585938 183.738281 193.089844 181.890625 C 206.699219 175.261719 211.804688 166.105469 217.335938 152.273438 C 220.363281 144.4375 221.15625 138.648438 218.292969 129.390625 Z M 218.289062 129.390625" fill="#0c3c4a"></path></g></g></g></g></g></g><g clipPath="url(#ae0f7a9109)"><path fillRule="nonzero" fill-opacity="1" d="M 114.496094 74.167969 C 114.089844 74.335938 113.691406 74.515625 113.292969 74.691406 L 191.535156 152.933594 C 191.710938 152.535156 191.890625 152.136719 192.058594 151.730469 Z M 103.347656 80.285156 C 103.007812 80.519531 102.671875 80.757812 102.335938 81 L 185.226562 163.890625 C 185.46875 163.558594 185.707031 163.21875 185.945312 162.882812 Z M 108.664062 76.96875 C 108.296875 77.175781 107.933594 77.390625 107.570312 77.601562 L 188.625 158.65625 C 188.835938 158.292969 189.054688 157.929688 189.257812 157.5625 Z M 120.902344 71.941406 C 120.457031 72.070312 120.003906 72.1875 119.558594 72.324219 L 193.902344 146.667969 C 194.039062 146.222656 194.15625 145.773438 194.285156 145.324219 Z M 145.039062 70.179688 C 144.386719 70.09375 143.734375 70.003906 143.074219 69.941406 L 196.289062 123.152344 C 196.222656 122.496094 196.136719 121.84375 196.050781 121.1875 Z M 186.84375 96.445312 C 184.800781 93.339844 182.476562 90.441406 179.90625 87.78125 L 178.449219 86.320312 C 175.785156 83.75 172.886719 81.425781 169.785156 79.382812 Z M 135.910156 69.683594 C 135.347656 69.695312 134.785156 69.699219 134.226562 69.726562 L 196.5 132 C 196.527344 131.441406 196.53125 130.878906 196.542969 130.316406 Z M 127.96875 70.375 C 127.476562 70.449219 126.992188 70.546875 126.503906 70.636719 L 195.589844 139.722656 C 195.679688 139.238281 195.777344 138.75 195.851562 138.257812 Z M 98.488281 84.058594 C 98.179688 84.324219 97.867188 84.589844 97.5625 84.859375 L 181.367188 168.664062 C 181.640625 168.359375 181.902344 168.046875 182.167969 167.738281 Z M 84.679688 156.582031 C 85.417969 157.984375 86.210938 159.351562 87.054688 160.683594 L 105.542969 179.171875 C 106.875 180.015625 108.242188 180.808594 109.644531 181.546875 Z M 78 132.636719 C 78.039062 133.261719 78.085938 133.886719 78.144531 134.503906 L 131.722656 188.085938 C 132.34375 188.140625 132.964844 188.1875 133.589844 188.226562 Z M 194.222656 112.457031 C 193.976562 111.609375 193.710938 110.769531 193.429688 109.9375 L 156.289062 72.796875 C 155.457031 72.515625 154.617188 72.25 153.769531 72.003906 Z M 79.503906 142.773438 C 79.691406 143.554688 79.890625 144.332031 80.109375 145.105469 L 121.121094 186.117188 C 121.894531 186.335938 122.671875 186.539062 123.453125 186.722656 Z M 78.097656 124.101562 C 78.054688 124.632812 78.003906 125.167969 77.976562 125.703125 L 140.523438 188.253906 C 141.0625 188.222656 141.59375 188.175781 142.128906 188.128906 Z M 79.195312 116.5625 C 79.09375 117.042969 79.003906 117.527344 78.910156 118.007812 L 148.21875 187.316406 C 148.703125 187.226562 149.183594 187.132812 149.664062 187.03125 Z M 90.101562 92.941406 C 89.851562 93.265625 89.605469 93.59375 89.359375 93.925781 L 172.300781 176.867188 C 172.632812 176.625 172.960938 176.375 173.289062 176.125 Z M 86.582031 98.050781 C 86.363281 98.410156 86.15625 98.777344 85.945312 99.140625 L 167.085938 180.28125 C 167.449219 180.070312 167.816406 179.863281 168.175781 179.644531 Z M 81.070312 109.808594 C 80.921875 110.234375 80.769531 110.664062 80.632812 111.097656 L 155.128906 185.59375 C 155.5625 185.457031 155.992188 185.304688 156.421875 185.15625 Z M 83.554688 103.660156 C 83.371094 104.050781 83.195312 104.449219 83.019531 104.847656 L 161.378906 183.210938 C 161.777344 183.03125 162.175781 182.859375 162.566406 182.671875 Z M 177.949219 172.152344 C 177.652344 172.433594 177.363281 172.71875 177.0625 172.992188 L 93.234375 89.167969 C 93.507812 88.863281 93.792969 88.574219 94.074219 88.277344 L 177.949219 172.152344" fill="#b8b022"></path></g><g clipPath="url(#2869cea16c)"><g clipPath="url(#7a6c269394)"><path fillRule="nonzero" fill-opacity="1" d="M 156.457031 88.875 L 236.648438 88.875 L 236.648438 169.066406 L 156.457031 169.066406 Z M 156.457031 88.875" fill="#f6ea21"></path></g></g></svg>